{"title":"Solitary-S04E007-Dunk.If.Youre.Ornery.avi","uid":5440689,"size":395251151,"categoryP":"video","categoryS":"tv_shows","magnet":"?xt=urn:btih:50542f4ff62fd3a304ad1edfa8540da9d38c311e&amp;dn=Solitary-S04E007-Dunk.If.Youre.Ornery.avi&amp;tr=udp%3A%2F%2Ftracker.openbittorrent.com%3A80&amp;tr=udp%3A%2F%2Fopen.demonii.com%3A1337&amp;tr=udp%3A%2F%2Ftracker.coppersurfer.tk%3A6969&amp;tr=udp%3A%2F%2Fexodus.desync.com%3A6969","seeders":1,"leechers":0,"uploader":"pixiesmiles","files":-1,"time":1268867437,"description":"I'm crossing my fingers and toes and and and... that this upload will finally go through! \n\nAs for the file: \n\n \nNext to the last episode of Solitary 4.0 here..\n\nwho do you think is going to win? \nWho do you WANT to win?\n\nI'm kind of rooting for number 6.. \nIt's that southern boy charm thingy \nhe's got going on I think.. ;o)\n\nEnjoy!\n\nFormat : AVI\nFormat/Info : Audio Video Interleave\nFile size : 377 MiB\nDuration : 45mn 13s\nOverall bit rate : 1 165 Kbps\n\nVideo\nFormat : xvid\nCodec ID : xvid\nDuration : 45mn 13s\nBit rate : 1 024 Kbps\nWidth : 640 pixels\nHeight : 360 pixels\nDisplay aspect ratio : 16:9\nFrame rate : 30.000 fps\nBits/(Pixel*Frame) : 0.148\nStream size : 331 MiB (88%)\n\nAudio\nID : 1\nFormat : MPEG Audio\nFormat version : Version 1\nFormat profile : Layer 3\nMode : Joint stereo\nFormat_Settings_ModeExtension : MS Stereo\nCodec ID : 55\nCodec ID/Hint : MP3\nDuration : 45mn 13s\nBit rate mode : Constant\nBit rate : 128 Kbps\nChannel(s) : 2 channels\nSampling rate : 48.0 KHz\nStream size : 41.4 MiB (11%)\nAlignment : Aligned on interleaves\nInterleave, duration : 24 ms (0.72 video frame)\nWriting library : LAME3.97 (beta)","torrent":{"xt":"urn:btih:50542f4ff62fd3a304ad1edfa8540da9d38c311e","amp;dn":"Solitary-S04E007-Dunk.If.Youre.Ornery.avi","amp;tr":["udp%3A%2F%2Ftracker.openbittorrent.com%3A80","udp%3A%2F%2Fopen.demonii.com%3A1337","udp%3A%2F%2Ftracker.coppersurfer.tk%3A6969","udp%3A%2F%2Fexodus.desync.com%3A6969"],"infoHash":"50542f4ff62fd3a304ad1edfa8540da9d38c311e","infoHashBuffer":{"type":"Buffer","data":[80,84,47,79,246,47,211,163,4,173,30,223,168,84,13,169,211,140,49,30]},"announce":[],"urlList":[]}}